<mxfile host="app.diagrams.net" modified="2024-01-25T06:41:28.796Z" agent="Mozilla/5.0 (Windows NT 10.0; Win64; x64) AppleWebKit/537.36 (KHTML, like Gecko) Chrome/120.0.0.0 Safari/537.36" etag="pc5AMQuNAFNdHTN7pnN_" version="23.0.1" type="github">
  <diagram id="C5RBs43oDa-KdzZeNtuy" name="Page-1">
    <mxGraphModel dx="1434" dy="800" grid="1" gridSize="10" guides="1" tooltips="1" connect="1" arrows="1" fold="1" page="1" pageScale="1" pageWidth="827" pageHeight="1169" math="0" shadow="0">
      <root>
        <mxCell id="WIyWlLk6GJQsqaUBKTNV-0" />
        <mxCell id="WIyWlLk6GJQsqaUBKTNV-1" parent="WIyWlLk6GJQsqaUBKTNV-0" />
        <mxCell id="zkfFHV4jXpPFQw0GAbJ--0" value="s_clients" style="swimlane;fontStyle=2;align=center;verticalAlign=top;childLayout=stackLayout;horizontal=1;startSize=26;horizontalStack=0;resizeParent=1;resizeLast=0;collapsible=1;marginBottom=0;rounded=0;shadow=0;strokeWidth=1;fillColor=#dae8fc;strokeColor=#6c8ebf;" parent="WIyWlLk6GJQsqaUBKTNV-1" vertex="1">
          <mxGeometry x="220" width="160" height="80" as="geometry">
            <mxRectangle x="230" y="140" width="160" height="26" as="alternateBounds" />
          </mxGeometry>
        </mxCell>
        <mxCell id="zkfFHV4jXpPFQw0GAbJ--1" value="int id;" style="text;align=left;verticalAlign=top;spacingLeft=4;spacingRight=4;overflow=hidden;rotatable=0;points=[[0,0.5],[1,0.5]];portConstraint=eastwest;fillColor=#dae8fc;strokeColor=#6c8ebf;" parent="zkfFHV4jXpPFQw0GAbJ--0" vertex="1">
          <mxGeometry y="26" width="160" height="26" as="geometry" />
        </mxCell>
        <mxCell id="zkfFHV4jXpPFQw0GAbJ--2" value="char msg[1024]" style="text;align=left;verticalAlign=top;spacingLeft=4;spacingRight=4;overflow=hidden;rotatable=0;points=[[0,0.5],[1,0.5]];portConstraint=eastwest;rounded=0;shadow=0;html=0;fillColor=#dae8fc;strokeColor=#6c8ebf;" parent="zkfFHV4jXpPFQw0GAbJ--0" vertex="1">
          <mxGeometry y="52" width="160" height="26" as="geometry" />
        </mxCell>
        <mxCell id="UoYPHvhufsrIFoe6nVKH-0" value="structure clients" style="ellipse;whiteSpace=wrap;html=1;fillColor=#dae8fc;strokeColor=#6c8ebf;" vertex="1" parent="WIyWlLk6GJQsqaUBKTNV-1">
          <mxGeometry x="80" width="120" height="80" as="geometry" />
        </mxCell>
        <mxCell id="UoYPHvhufsrIFoe6nVKH-4" value="variables" style="swimlane;fontStyle=2;align=center;verticalAlign=top;childLayout=stackLayout;horizontal=1;startSize=26;horizontalStack=0;resizeParent=1;resizeLast=0;collapsible=1;marginBottom=0;rounded=0;shadow=0;strokeWidth=1;fillColor=#dae8fc;strokeColor=#6c8ebf;" vertex="1" parent="WIyWlLk6GJQsqaUBKTNV-1">
          <mxGeometry x="480" width="210" height="140" as="geometry">
            <mxRectangle x="230" y="140" width="160" height="26" as="alternateBounds" />
          </mxGeometry>
        </mxCell>
        <mxCell id="UoYPHvhufsrIFoe6nVKH-5" value="t_clients[1024];" style="text;align=left;verticalAlign=top;spacingLeft=4;spacingRight=4;overflow=hidden;rotatable=0;points=[[0,0.5],[1,0.5]];portConstraint=eastwest;fillColor=#dae8fc;strokeColor=#6c8ebf;" vertex="1" parent="UoYPHvhufsrIFoe6nVKH-4">
          <mxGeometry y="26" width="210" height="26" as="geometry" />
        </mxCell>
        <mxCell id="UoYPHvhufsrIFoe6nVKH-6" value="fd_set rfds,wfds,actv;" style="text;align=left;verticalAlign=top;spacingLeft=4;spacingRight=4;overflow=hidden;rotatable=0;points=[[0,0.5],[1,0.5]];portConstraint=eastwest;rounded=0;shadow=0;html=0;fillColor=#dae8fc;strokeColor=#6c8ebf;" vertex="1" parent="UoYPHvhufsrIFoe6nVKH-4">
          <mxGeometry y="52" width="210" height="28" as="geometry" />
        </mxCell>
        <mxCell id="UoYPHvhufsrIFoe6nVKH-7" value="int mfd = 0, nid = 0;" style="text;align=left;verticalAlign=top;spacingLeft=4;spacingRight=4;overflow=hidden;rotatable=0;points=[[0,0.5],[1,0.5]];portConstraint=eastwest;rounded=0;shadow=0;html=0;fillColor=#dae8fc;strokeColor=#6c8ebf;" vertex="1" parent="UoYPHvhufsrIFoe6nVKH-4">
          <mxGeometry y="80" width="210" height="30" as="geometry" />
        </mxCell>
        <mxCell id="UoYPHvhufsrIFoe6nVKH-8" value="char rbuffer[120000],wbuffer[120000];" style="text;align=left;verticalAlign=top;spacingLeft=4;spacingRight=4;overflow=hidden;rotatable=0;points=[[0,0.5],[1,0.5]];portConstraint=eastwest;rounded=0;shadow=0;html=0;fillColor=#dae8fc;strokeColor=#6c8ebf;" vertex="1" parent="UoYPHvhufsrIFoe6nVKH-4">
          <mxGeometry y="110" width="210" height="30" as="geometry" />
        </mxCell>
        <mxCell id="UoYPHvhufsrIFoe6nVKH-9" value="gestion erreurs" style="ellipse;whiteSpace=wrap;html=1;fillColor=#f8cecc;strokeColor=#b85450;" vertex="1" parent="WIyWlLk6GJQsqaUBKTNV-1">
          <mxGeometry x="80" y="160" width="120" height="80" as="geometry" />
        </mxCell>
        <mxCell id="UoYPHvhufsrIFoe6nVKH-10" value="void&amp;nbsp; &amp;nbsp; fterr(char *s) {&lt;br&gt;if (s)&lt;br&gt;&amp;nbsp; &amp;nbsp; &amp;nbsp; &amp;nbsp; write(2, s, strlen(s));&lt;br&gt;&amp;nbsp; &amp;nbsp; else&lt;br&gt;&amp;nbsp; &amp;nbsp; &amp;nbsp; &amp;nbsp; write(2, &quot;Fatal error&quot;, strlen(&quot;Fatal error&quot;));&lt;br&gt;&amp;nbsp; &amp;nbsp; write(2, &quot;\n&quot;, 1);&lt;br&gt;&amp;nbsp; &amp;nbsp; exit(1);&lt;br&gt;}" style="rounded=1;whiteSpace=wrap;html=1;fillColor=#f8cecc;strokeColor=#b85450;" vertex="1" parent="WIyWlLk6GJQsqaUBKTNV-1">
          <mxGeometry x="200" y="140" width="260" height="140" as="geometry" />
        </mxCell>
        <mxCell id="UoYPHvhufsrIFoe6nVKH-11" value="envoi" style="ellipse;whiteSpace=wrap;html=1;fillColor=#fff2cc;strokeColor=#d6b656;" vertex="1" parent="WIyWlLk6GJQsqaUBKTNV-1">
          <mxGeometry x="467" y="160" width="120" height="80" as="geometry" />
        </mxCell>
        <mxCell id="UoYPHvhufsrIFoe6nVKH-12" value="&lt;div&gt;void&amp;nbsp; &amp;nbsp; sendAll(int not) {&lt;/div&gt;&lt;div&gt;&amp;nbsp; &amp;nbsp; for(int i = 0; i &amp;lt;= mfd; i++)&lt;/div&gt;&lt;div&gt;&amp;nbsp; &amp;nbsp; &amp;nbsp; &amp;nbsp; if(FD_ISSET(i, &amp;amp;wfds) &amp;amp;&amp;amp; i != not)&lt;/div&gt;&lt;div&gt;&amp;nbsp; &amp;nbsp; &amp;nbsp; &amp;nbsp; &amp;nbsp; &amp;nbsp; send(i, wbuffer, strlen(wbuffer), 0);&lt;/div&gt;&lt;div&gt;}&lt;/div&gt;" style="rounded=1;whiteSpace=wrap;html=1;fillColor=#fff2cc;strokeColor=#d6b656;" vertex="1" parent="WIyWlLk6GJQsqaUBKTNV-1">
          <mxGeometry x="587" y="160" width="240" height="100" as="geometry" />
        </mxCell>
        <mxCell id="UoYPHvhufsrIFoe6nVKH-16" value="Main" style="shape=process;whiteSpace=wrap;html=1;backgroundOutline=1;fillColor=#f5f5f5;strokeColor=#666666;fontColor=#333333;" vertex="1" parent="WIyWlLk6GJQsqaUBKTNV-1">
          <mxGeometry x="10" y="320" width="800" height="60" as="geometry" />
        </mxCell>
        <mxCell id="UoYPHvhufsrIFoe6nVKH-17" value="&lt;div&gt;&amp;nbsp;if (ac != 2)&lt;/div&gt;&lt;div&gt;&amp;nbsp; &amp;nbsp; &amp;nbsp; &amp;nbsp; fterr(&quot;Wrong number of arguments&quot;);&lt;/div&gt;" style="rounded=1;whiteSpace=wrap;html=1;fillColor=#f8cecc;strokeColor=#b85450;" vertex="1" parent="WIyWlLk6GJQsqaUBKTNV-1">
          <mxGeometry x="130" y="425" width="270" height="50" as="geometry" />
        </mxCell>
        <mxCell id="UoYPHvhufsrIFoe6nVKH-18" value="verif arguments" style="ellipse;whiteSpace=wrap;html=1;fillColor=#f8cecc;strokeColor=#b85450;" vertex="1" parent="WIyWlLk6GJQsqaUBKTNV-1">
          <mxGeometry y="410" width="120" height="80" as="geometry" />
        </mxCell>
        <mxCell id="UoYPHvhufsrIFoe6nVKH-19" value="&lt;div&gt;&amp;nbsp; &amp;nbsp; int sfd = socket(AF_INET, SOCK_STREAM, 0);&lt;/div&gt;&lt;div&gt;&amp;nbsp; &amp;nbsp; if (sfd &amp;lt; 0)&lt;/div&gt;&lt;div&gt;&amp;nbsp; &amp;nbsp; &amp;nbsp; &amp;nbsp; fterr(NULL);&lt;/div&gt;" style="rounded=1;whiteSpace=wrap;html=1;fillColor=#d5e8d4;strokeColor=#82b366;" vertex="1" parent="WIyWlLk6GJQsqaUBKTNV-1">
          <mxGeometry x="550" y="420" width="270" height="60" as="geometry" />
        </mxCell>
        <mxCell id="UoYPHvhufsrIFoe6nVKH-20" value="crÃ©ation socket" style="ellipse;whiteSpace=wrap;html=1;fillColor=#d5e8d4;strokeColor=#82b366;" vertex="1" parent="WIyWlLk6GJQsqaUBKTNV-1">
          <mxGeometry x="414" y="410" width="120" height="80" as="geometry" />
        </mxCell>
        <mxCell id="UoYPHvhufsrIFoe6nVKH-26" value="" style="endArrow=classic;html=1;rounded=0;" edge="1" parent="WIyWlLk6GJQsqaUBKTNV-1">
          <mxGeometry width="50" height="50" relative="1" as="geometry">
            <mxPoint x="400" y="39.5" as="sourcePoint" />
            <mxPoint x="460" y="39.5" as="targetPoint" />
          </mxGeometry>
        </mxCell>
        <mxCell id="UoYPHvhufsrIFoe6nVKH-27" value="initialiser fds,clients" style="ellipse;whiteSpace=wrap;html=1;fillColor=#dae8fc;strokeColor=#6c8ebf;" vertex="1" parent="WIyWlLk6GJQsqaUBKTNV-1">
          <mxGeometry y="540" width="120" height="80" as="geometry" />
        </mxCell>
        <mxCell id="UoYPHvhufsrIFoe6nVKH-28" value="&lt;div&gt;&amp;nbsp; &amp;nbsp; FD_ZERO(&amp;amp;actv);&lt;/div&gt;&lt;div&gt;&amp;nbsp; &amp;nbsp; bzero(&amp;amp;clients, sizeof(clients));&lt;/div&gt;&lt;div&gt;&amp;nbsp; &amp;nbsp; mfd = sfd;&lt;/div&gt;&lt;div&gt;&amp;nbsp; &amp;nbsp; FD_SET(sfd, &amp;amp;actv);&lt;/div&gt;" style="rounded=1;whiteSpace=wrap;html=1;fillColor=#dae8fc;strokeColor=#6c8ebf;" vertex="1" parent="WIyWlLk6GJQsqaUBKTNV-1">
          <mxGeometry x="130" y="547" width="270" height="75" as="geometry" />
        </mxCell>
      </root>
    </mxGraphModel>
  </diagram>
</mxfile>
